<svg width="24" height="24" viewBox="0 0 24 24" fill="none" xmlns="http://www.w3.org/2000/svg">
<path d="M18.975 19.95H5.025C3.9 19.95 3 19.05 3 17.925V17.325C3 16.2 3.9 15.3 5.025 15.3C5.325 15.3 5.55 15.075 5.55 14.775V10.95C5.55 7.425 8.4 4.5 12 4.5C15.6 4.5 18.45 7.425 18.45 10.95V14.775C18.45 15.075 18.675 15.3 18.975 15.3C20.1 15.3 21 16.2 21 17.325V17.925C21 19.05 20.1 19.95 18.975 19.95ZM12 6C9.3 6 7.05 8.25 7.05 10.95V14.775C7.05 15.9 6.15 16.8 5.025 16.8C4.725 16.8 4.5 17.025 4.5 17.325V17.925C4.5 18.225 4.725 18.45 5.025 18.45H18.975C19.275 18.45 19.5 18.225 19.5 17.925V17.325C19.5 17.025 19.275 16.8 18.975 16.8C17.85 16.8 16.95 15.9 16.95 14.775V10.95C16.95 8.25 14.7 6 12 6Z" fill="#FC4C01"/>
<path d="M12 22.5C10.2 22.5 8.69995 21 8.69995 19.2C8.69995 18.75 8.99995 18.45 9.44995 18.45C9.89995 18.45 10.2 18.75 10.2 19.2C10.2 20.175 11.025 21 12 21C12.975 21 13.7999 20.175 13.7999 19.2C13.7999 18.75 14.0999 18.45 14.5499 18.45C14.9999 18.45 15.2999 18.75 15.2999 19.2C15.2999 21 13.8 22.5 12 22.5ZM12 6C10.725 6 9.74995 5.025 9.74995 3.75C9.74995 2.475 10.725 1.5 12 1.5C13.275 1.5 14.2499 2.475 14.2499 3.75C14.2499 5.025 13.275 6 12 6ZM12 3C11.55 3 11.25 3.3 11.25 3.75C11.25 4.2 11.55 4.5 12 4.5C12.45 4.5 12.75 4.2 12.75 3.75C12.75 3.3 12.45 3 12 3Z" fill="#FC4C01"/>
</svg>
