<svg width="46" height="104" viewBox="0 0 46 104" fill="none" xmlns="http://www.w3.org/2000/svg">
<path d="M23 19.7346C26.4554 19.7416 29.7669 21.1191 32.2081 23.5647C34.6492 26.0103 36.0206 29.3244 36.0213 32.7798C36.0213 33.9972 36.5049 35.1648 37.3658 36.0257C38.2266 36.8865 39.3942 37.3701 40.6116 37.3701C41.829 37.3701 42.9966 36.8865 43.8575 36.0257C44.7183 35.1648 45.2019 33.9972 45.2019 32.7798C45.1971 27.6873 43.4461 22.7505 40.241 18.7931C37.0359 14.8358 32.5706 12.0972 27.5903 11.0345V5.14147C27.5903 3.92404 27.1066 2.75648 26.2458 1.89563C25.3849 1.03477 24.2174 0.551147 23 0.551147C21.7825 0.551147 20.615 1.03477 19.7541 1.89563C18.8933 2.75648 18.4096 3.92404 18.4096 5.14147V11.0345C13.0391 12.1724 8.28015 15.2585 5.05049 19.6977C1.82082 24.1369 0.349244 29.6147 0.919547 35.0748C1.48985 40.5348 4.06164 45.5903 8.13893 49.2663C12.2162 52.9422 17.5102 54.9783 23 54.9818C25.5778 54.9794 28.0985 55.7414 30.2432 57.1716C32.388 58.6017 34.0605 60.6358 35.0492 63.0165C36.038 65.3972 36.2986 68.0176 35.798 70.5464C35.2975 73.0752 34.0583 75.3987 32.2372 77.2233C30.4161 79.0478 28.0948 80.2913 25.567 80.7966C23.0391 81.3018 20.4182 81.0461 18.0357 80.0618C15.6531 79.0775 13.616 77.4088 12.1819 75.2667C10.7477 73.1247 9.98096 70.6054 9.9786 68.0275C9.9786 66.8101 9.49499 65.6425 8.63413 64.7817C7.77328 63.9208 6.60572 63.4372 5.38829 63.4372C4.17086 63.4372 3.0033 63.9208 2.14245 64.7817C1.2816 65.6425 0.797974 66.8101 0.797974 68.0275C0.804693 73.117 2.55692 78.0501 5.76213 82.0034C8.96734 85.9567 13.4316 88.691 18.4096 89.7499V98.4655C18.4096 99.683 18.8933 100.851 19.7541 101.711C20.615 102.572 21.7825 103.056 23 103.056C24.2174 103.056 25.3849 102.572 26.2458 101.711C27.1066 100.851 27.5903 99.683 27.5903 98.4655V89.7499C32.958 88.6088 37.7134 85.5215 40.9404 81.0828C44.1673 76.6442 45.6374 71.1684 45.0673 65.7104C44.4973 60.2524 41.9274 55.1985 37.8529 51.5225C33.7784 47.8465 28.4876 45.8085 23 45.8012C19.5433 45.8012 16.2282 44.428 13.784 41.9838C11.3398 39.5396 9.96667 36.2245 9.96667 32.7679C9.96667 29.3112 11.3398 25.9962 13.784 23.5519C16.2282 21.1077 19.5433 19.7346 23 19.7346V19.7346Z" fill="white"/>
</svg>
