<svg width="200" height="200" viewBox="0 0 200 200" fill="none" xmlns="http://www.w3.org/2000/svg">
<path d="M100 175.473C141.682 175.473 175.473 141.683 175.473 100C175.473 58.3178 141.682 24.5275 100 24.5275C58.3177 24.5275 24.5275 58.3178 24.5275 100C24.5275 141.683 58.3177 175.473 100 175.473Z" fill="#FE7034"/>
<path d="M100 66.7346C103.455 66.7416 106.767 68.1191 109.208 70.5647C111.649 73.0103 113.021 76.3244 113.021 79.7798C113.021 80.9972 113.505 82.1648 114.366 83.0257C115.227 83.8865 116.394 84.3701 117.612 84.3701C118.829 84.3701 119.997 83.8865 120.857 83.0257C121.718 82.1648 122.202 80.9972 122.202 79.7798C122.197 74.6873 120.446 69.7505 117.241 65.7931C114.036 61.8358 109.571 59.0972 104.59 58.0345V52.1415C104.59 50.924 104.107 49.7565 103.246 48.8956C102.385 48.0348 101.217 47.5511 100 47.5511C98.7825 47.5511 97.615 48.0348 96.7541 48.8956C95.8933 49.7565 95.4096 50.924 95.4096 52.1415V58.0345C90.0391 59.1724 85.2801 62.2585 82.0505 66.6977C78.8208 71.1369 77.3492 76.6147 77.9195 82.0748C78.4898 87.5348 81.0616 92.5903 85.1389 96.2663C89.2162 99.9422 94.5102 101.978 100 101.982C102.578 101.979 105.098 102.741 107.243 104.172C109.388 105.602 111.061 107.636 112.049 110.016C113.038 112.397 113.299 115.018 112.798 117.546C112.297 120.075 111.058 122.399 109.237 124.223C107.416 126.048 105.095 127.291 102.567 127.797C100.039 128.302 97.4182 128.046 95.0357 127.062C92.6531 126.078 90.616 124.409 89.1819 122.267C87.7477 120.125 86.981 117.605 86.9786 115.028C86.9786 113.81 86.495 112.643 85.6341 111.782C84.7733 110.921 83.6057 110.437 82.3883 110.437C81.1709 110.437 80.0033 110.921 79.1424 111.782C78.2816 112.643 77.798 113.81 77.798 115.028C77.8047 120.117 79.5569 125.05 82.7621 129.003C85.9673 132.957 90.4316 135.691 95.4096 136.75V145.466C95.4096 146.683 95.8933 147.851 96.7541 148.711C97.615 149.572 98.7825 150.056 100 150.056C101.217 150.056 102.385 149.572 103.246 148.711C104.107 147.851 104.59 146.683 104.59 145.466V136.75C109.958 135.609 114.713 132.521 117.94 128.083C121.167 123.644 122.637 118.168 122.067 112.71C121.497 107.252 118.927 102.198 114.853 98.5225C110.778 94.8465 105.488 92.8085 100 92.8012C96.5433 92.8012 93.2282 91.428 90.784 88.9838C88.3398 86.5396 86.9667 83.2245 86.9667 79.7679C86.9667 76.3112 88.3398 72.9962 90.784 70.5519C93.2282 68.1077 96.5433 66.7346 100 66.7346Z" fill="white"/>
<path d="M100 19.939C55.8531 19.939 19.9371 55.855 19.9371 100.002C19.9371 144.149 55.8531 180.063 100 180.063C144.147 180.063 180.063 144.147 180.063 100C180.063 55.8532 144.147 19.939 100 19.939ZM100 170.884C60.9153 170.884 29.1178 139.086 29.1178 100.002C29.1178 60.9177 60.9153 29.1196 100 29.1196C139.085 29.1196 170.882 60.9172 170.882 100.002C170.882 139.087 139.085 170.883 100 170.883V170.884Z" fill="#FC4C01"/>
</svg>
