<svg width="24" height="24" viewBox="0 0 24 24" fill="none" xmlns="http://www.w3.org/2000/svg">
<path d="M6.9375 5.25H14.0625V6H6.9375V5.25Z" fill="black"/>
<path d="M20.0483 13.9909C20.039 13.9679 20.0251 13.9471 20.0074 13.9298L19.2577 13.1802C19.2226 13.145 19.1749 13.1253 19.1252 13.1253C19.0755 13.1253 19.0278 13.145 18.9926 13.1802L18.375 13.7974L17.7577 13.1802C17.7226 13.145 17.6749 13.1253 17.6252 13.1253C17.5755 13.1253 17.5278 13.145 17.4926 13.1802L17.0625 13.6099V3.93753C17.0623 3.88774 17.0425 3.84004 17.0074 3.80478L16.2577 3.05515C16.2226 3.02 16.1749 3.00026 16.1252 3.00026C16.0755 3.00026 16.0278 3.02 15.9926 3.05515L15.375 3.6724L14.7577 3.05515C14.7226 3.02 14.6749 3.00026 14.6252 3.00026C14.5755 3.00026 14.5278 3.02 14.4926 3.05515L13.875 3.6724L13.2577 3.05515C13.2226 3.02 13.1749 3.00026 13.1252 3.00026C13.0755 3.00026 13.0278 3.02 12.9926 3.05515L12.375 3.6724L11.7578 3.05515C11.7226 3.02 11.6749 3.00026 11.6252 3.00026C11.5755 3.00026 11.5278 3.02 11.4926 3.05515L10.875 3.6724L10.2578 3.05515C10.2226 3.02 10.1749 3.00026 10.1252 3.00026C10.0755 3.00026 10.0278 3.02 9.99262 3.05515L9.375 3.6724L8.75775 3.05515C8.72259 3.02 8.67491 3.00026 8.62519 3.00026C8.57547 3.00026 8.52779 3.02 8.49262 3.05515L7.875 3.6724L7.25775 3.05515C7.22259 3.02 7.17491 3.00026 7.12519 3.00026C7.07547 3.00026 7.02779 3.02 6.99262 3.05515L6.375 3.6724L5.75775 3.05515C5.72259 3.02 5.67491 3.00026 5.62519 3.00026C5.57547 3.00026 5.52779 3.02 5.49263 3.05515L4.875 3.6724L4.25775 3.05515C4.23613 3.03294 4.2093 3.01649 4.17969 3.00729C4.15009 2.99808 4.11866 2.99643 4.08826 3.00246C4.05785 3.0085 4.02944 3.02204 4.0056 3.04185C3.98176 3.06166 3.96325 3.08712 3.95175 3.1159C3.94239 3.13862 3.93755 3.16295 3.9375 3.18753V19.3125C3.9375 20.2429 4.69463 21 5.625 21H18.375C19.3054 21 20.0625 20.2429 20.0625 19.3125V14.0625C20.0625 14.038 20.0576 14.0136 20.0483 13.9909ZM15.7264 7.87503C15.7761 7.87503 15.8238 7.89478 15.859 7.92994C15.8941 7.96511 15.9139 8.0128 15.9139 8.06253C15.9139 8.11226 15.8941 8.15995 15.859 8.19511C15.8238 8.23027 15.7761 8.25003 15.7264 8.25003H13.8514C13.8016 8.25003 13.754 8.23027 13.7188 8.19511C13.6836 8.15995 13.6639 8.11226 13.6639 8.06253C13.6639 8.0128 13.6836 7.96511 13.7188 7.92994C13.754 7.89478 13.8016 7.87503 13.8514 7.87503H15.7264ZM13.875 16.494C13.9247 16.494 13.9724 16.5138 14.0076 16.5489C14.0427 16.5841 14.0625 16.6318 14.0625 16.6815V17.4315C14.0625 17.4813 14.0427 17.5289 14.0076 17.5641C13.9724 17.5993 13.9247 17.619 13.875 17.619H12.75C12.7003 17.619 12.6526 17.5993 12.6174 17.5641C12.5823 17.5289 12.5625 17.4813 12.5625 17.4315C12.5625 17.3818 12.5823 17.3341 12.6174 17.2989C12.6526 17.2638 12.7003 17.244 12.75 17.244H13.6875V16.869H12.75C12.7003 16.869 12.6526 16.8493 12.6174 16.8141C12.5823 16.7789 12.5625 16.7313 12.5625 16.6815V15.9315C12.5625 15.8818 12.5823 15.8341 12.6174 15.7989C12.6526 15.7638 12.7003 15.744 12.75 15.744H13.875C13.9247 15.744 13.9724 15.7638 14.0076 15.7989C14.0427 15.8341 14.0625 15.8818 14.0625 15.9315C14.0625 15.9813 14.0427 16.0289 14.0076 16.0641C13.9724 16.0993 13.9247 16.119 13.875 16.119H12.9375V16.494H13.875ZM6.5625 5.06253C6.5625 5.0128 6.58225 4.96511 6.61742 4.92994C6.65258 4.89478 6.70027 4.87503 6.75 4.87503H14.25C14.2997 4.87503 14.3474 4.89478 14.3826 4.92994C14.4177 4.96511 14.4375 5.0128 14.4375 5.06253V6.18753C14.4375 6.23726 14.4177 6.28495 14.3826 6.32011C14.3474 6.35527 14.2997 6.37503 14.25 6.37503H6.75C6.70027 6.37503 6.65258 6.35527 6.61742 6.32011C6.58225 6.28495 6.5625 6.23726 6.5625 6.18753V5.06253ZM11.4375 17.256H11.8125V16.881H11.625C11.5753 16.881 11.5276 16.8613 11.4924 16.8261C11.4573 16.7909 11.4375 16.7433 11.4375 16.6935C11.4375 16.6438 11.4573 16.5961 11.4924 16.5609C11.5276 16.5258 11.5753 16.506 11.625 16.506H12C12.0497 16.506 12.0974 16.5258 12.1326 16.5609C12.1677 16.5961 12.1875 16.6438 12.1875 16.6935V17.4435C12.1875 17.4933 12.1677 17.5409 12.1326 17.5761C12.0974 17.6113 12.0497 17.631 12 17.631H10.875C10.8253 17.631 10.7776 17.6113 10.7424 17.5761C10.7073 17.5409 10.6875 17.4933 10.6875 17.4435V15.9435C10.6875 15.8938 10.7073 15.8461 10.7424 15.8109C10.7776 15.7758 10.8253 15.756 10.875 15.756H12C12.0497 15.756 12.0974 15.7758 12.1326 15.8109C12.1677 15.8461 12.1875 15.8938 12.1875 15.9435C12.1875 15.9933 12.1677 16.0409 12.1326 16.0761C12.0974 16.1113 12.0497 16.131 12 16.131H11.0625V17.256H11.4375ZM5.22638 7.87503H8.97638C9.0261 7.87503 9.07379 7.89478 9.10896 7.92994C9.14412 7.96511 9.16388 8.0128 9.16388 8.06253C9.16388 8.11226 9.14412 8.15995 9.10896 8.19511C9.07379 8.23027 9.0261 8.25003 8.97638 8.25003H5.22638C5.17665 8.25003 5.12896 8.23027 5.09379 8.19511C5.05863 8.15995 5.03888 8.11226 5.03888 8.06253C5.03888 8.0128 5.05863 7.96511 5.09379 7.92994C5.12896 7.89478 5.17665 7.87503 5.22638 7.87503ZM5.22638 9.00003H11.9764C12.0261 9.00003 12.0738 9.01978 12.109 9.05494C12.1441 9.09011 12.1639 9.1378 12.1639 9.18753C12.1639 9.23726 12.1441 9.28495 12.109 9.32011C12.0738 9.35527 12.0261 9.37503 11.9764 9.37503H5.22638C5.17665 9.37503 5.12896 9.35527 5.09379 9.32011C5.05863 9.28495 5.03888 9.23726 5.03888 9.18753C5.03888 9.1378 5.05863 9.09011 5.09379 9.05494C5.12896 9.01978 5.17665 9.00003 5.22638 9.00003ZM5.22638 10.125H10.4764C10.5261 10.125 10.5738 10.1448 10.609 10.1799C10.6441 10.2151 10.6639 10.2628 10.6639 10.3125C10.6639 10.3623 10.6441 10.4099 10.609 10.4451C10.5738 10.4803 10.5261 10.5 10.4764 10.5H5.22638C5.17665 10.5 5.12896 10.4803 5.09379 10.4451C5.05863 10.4099 5.03888 10.3623 5.03888 10.3125C5.03888 10.2628 5.05863 10.2151 5.09379 10.1799C5.12896 10.1448 5.17665 10.125 5.22638 10.125ZM5.22638 11.25H11.9764C12.0261 11.25 12.0738 11.2698 12.109 11.3049C12.1441 11.3401 12.1639 11.3878 12.1639 11.4375C12.1639 11.4873 12.1441 11.5349 12.109 11.5701C12.0738 11.6053 12.0261 11.625 11.9764 11.625H5.22638C5.17665 11.625 5.12896 11.6053 5.09379 11.5701C5.05863 11.5349 5.03888 11.4873 5.03888 11.4375C5.03888 11.3878 5.05863 11.3401 5.09379 11.3049C5.12896 11.2698 5.17665 11.25 5.22638 11.25ZM5.22638 12.375H10.4764C10.5261 12.375 10.5738 12.3948 10.609 12.4299C10.6441 12.4651 10.6639 12.5128 10.6639 12.5625C10.6639 12.6123 10.6441 12.6599 10.609 12.6951C10.5738 12.7303 10.5261 12.75 10.4764 12.75H5.22638C5.17665 12.75 5.12896 12.7303 5.09379 12.6951C5.05863 12.6599 5.03888 12.6123 5.03888 12.5625C5.03888 12.5128 5.05863 12.4651 5.09379 12.4299C5.12896 12.3948 5.17665 12.375 5.22638 12.375ZM5.22638 13.5H11.9764C12.0261 13.5 12.0738 13.5198 12.109 13.5549C12.1441 13.5901 12.1639 13.6378 12.1639 13.6875C12.1639 13.7373 12.1441 13.7849 12.109 13.8201C12.0738 13.8553 12.0261 13.875 11.9764 13.875H5.22638C5.17665 13.875 5.12896 13.8553 5.09379 13.8201C5.05863 13.7849 5.03888 13.7373 5.03888 13.6875C5.03888 13.6378 5.05863 13.5901 5.09379 13.5549C5.12896 13.5198 5.17665 13.5 5.22638 13.5ZM5.22638 15C5.17665 15 5.12896 14.9803 5.09379 14.9451C5.05863 14.9099 5.03888 14.8623 5.03888 14.8125C5.03888 14.7628 5.05863 14.7151 5.09379 14.6799C5.12896 14.6448 5.17665 14.625 5.22638 14.625H10.4764C10.5261 14.625 10.5738 14.6448 10.609 14.6799C10.6441 14.7151 10.6639 14.7628 10.6639 14.8125C10.6639 14.8623 10.6441 14.9099 10.609 14.9451C10.5738 14.9803 10.5261 15 10.4764 15H5.22638ZM9.375 16.875C9.32527 16.875 9.27758 16.8553 9.24242 16.8201C9.20725 16.7849 9.1875 16.7373 9.1875 16.6875C9.1875 16.6378 9.20725 16.5901 9.24242 16.5549C9.27758 16.5198 9.32527 16.5 9.375 16.5H9.5625V16.3125C9.5625 16.2628 9.58225 16.2151 9.61742 16.1799C9.65258 16.1448 9.70027 16.125 9.75 16.125C9.79973 16.125 9.84742 16.1448 9.88258 16.1799C9.91775 16.2151 9.9375 16.2628 9.9375 16.3125V16.5H10.125C10.1747 16.5 10.2224 16.5198 10.2576 16.5549C10.2927 16.5901 10.3125 16.6378 10.3125 16.6875C10.3125 16.7373 10.2927 16.7849 10.2576 16.8201C10.2224 16.8553 10.1747 16.875 10.125 16.875H9.9375V17.0625C9.9375 17.1123 9.91775 17.1599 9.88258 17.1951C9.84742 17.2303 9.79973 17.25 9.75 17.25C9.70027 17.25 9.65258 17.2303 9.61742 17.1951C9.58225 17.1599 9.5625 17.1123 9.5625 17.0625V16.875H9.375ZM8.625 16.494C8.67473 16.494 8.72242 16.5138 8.75758 16.5489C8.79275 16.5841 8.8125 16.6318 8.8125 16.6815V17.4315C8.8125 17.4813 8.79275 17.5289 8.75758 17.5641C8.72242 17.5993 8.67473 17.619 8.625 17.619H8.25V17.8125C8.25 17.8623 8.23025 17.9099 8.19508 17.9451C8.15992 17.9803 8.11223 18 8.0625 18C8.01277 18 7.96508 17.9803 7.92992 17.9451C7.89475 17.9099 7.875 17.8623 7.875 17.8125V17.619H7.5C7.45027 17.619 7.40258 17.5993 7.36742 17.5641C7.33225 17.5289 7.3125 17.4813 7.3125 17.4315C7.3125 17.3818 7.33225 17.3341 7.36742 17.2989C7.40258 17.2638 7.45027 17.244 7.5 17.244H8.4375V16.869H7.5C7.45027 16.869 7.40258 16.8493 7.36742 16.8141C7.33225 16.7789 7.3125 16.7313 7.3125 16.6815V15.9315C7.3125 15.8818 7.33225 15.8341 7.36742 15.7989C7.40258 15.7638 7.45027 15.744 7.5 15.744H7.875V15.5625C7.875 15.5128 7.89475 15.4651 7.92992 15.4299C7.96508 15.3948 8.01277 15.375 8.0625 15.375C8.11223 15.375 8.15992 15.3948 8.19508 15.4299C8.23025 15.4651 8.25 15.5128 8.25 15.5625V15.744H8.625C8.67473 15.744 8.72242 15.7638 8.75758 15.7989C8.79275 15.8341 8.8125 15.8818 8.8125 15.9315C8.8125 15.9813 8.79275 16.0289 8.75758 16.0641C8.72242 16.0993 8.67473 16.119 8.625 16.119H8.09175C8.08162 16.1209 8.073 16.125 8.0625 16.125C8.052 16.125 8.04338 16.1209 8.03325 16.119H7.6875V16.494H8.625ZM15.7264 19.875H10.4764C10.4266 19.875 10.379 19.8553 10.3438 19.8201C10.3086 19.7849 10.2889 19.7373 10.2889 19.6875C10.2889 19.6378 10.3086 19.5901 10.3438 19.5549C10.379 19.5198 10.4266 19.5 10.4764 19.5H15.7264C15.7761 19.5 15.8238 19.5198 15.859 19.5549C15.8941 19.5901 15.9139 19.6378 15.9139 19.6875C15.9139 19.7373 15.8941 19.7849 15.859 19.8201C15.8238 19.8553 15.7761 19.875 15.7264 19.875ZM15.7264 18.75H7.47638C7.42665 18.75 7.37896 18.7303 7.34379 18.6951C7.30863 18.6599 7.28888 18.6123 7.28888 18.5625C7.28888 18.5128 7.30863 18.4651 7.34379 18.4299C7.37896 18.3948 7.42665 18.375 7.47638 18.375H15.7264C15.7761 18.375 15.8238 18.3948 15.859 18.4299C15.8941 18.4651 15.9139 18.5128 15.9139 18.5625C15.9139 18.6123 15.8941 18.6599 15.859 18.6951C15.8238 18.7303 15.7761 18.75 15.7264 18.75ZM15.75 16.119H15.375V17.4315C15.375 17.4813 15.3552 17.5289 15.3201 17.5641C15.2849 17.5993 15.2372 17.619 15.1875 17.619C15.1378 17.619 15.0901 17.5993 15.0549 17.5641C15.0198 17.5289 15 17.4813 15 17.4315V16.119H14.625C14.5753 16.119 14.5276 16.0993 14.4924 16.0641C14.4573 16.0289 14.4375 15.9813 14.4375 15.9315C14.4375 15.8818 14.4573 15.8341 14.4924 15.7989C14.5276 15.7638 14.5753 15.744 14.625 15.744H15.75C15.7997 15.744 15.8474 15.7638 15.8826 15.7989C15.9177 15.8341 15.9375 15.8818 15.9375 15.9315C15.9375 15.9813 15.9177 16.0289 15.8826 16.0641C15.8474 16.0993 15.7997 16.119 15.75 16.119ZM15.75 15H14.625C14.5753 15 14.5276 14.9803 14.4924 14.9451C14.4573 14.9099 14.4375 14.8623 14.4375 14.8125C14.4375 14.7628 14.4573 14.7151 14.4924 14.6799C14.5276 14.6448 14.5753 14.625 14.625 14.625H15.75C15.7997 14.625 15.8474 14.6448 15.8826 14.6799C15.9177 14.7151 15.9375 14.7628 15.9375 14.8125C15.9375 14.8623 15.9177 14.9099 15.8826 14.9451C15.8474 14.9803 15.7997 15 15.75 15ZM15.75 13.875H14.625C14.5753 13.875 14.5276 13.8553 14.4924 13.8201C14.4573 13.7849 14.4375 13.7373 14.4375 13.6875C14.4375 13.6378 14.4573 13.5901 14.4924 13.5549C14.5276 13.5198 14.5753 13.5 14.625 13.5H15.75C15.7997 13.5 15.8474 13.5198 15.8826 13.5549C15.9177 13.5901 15.9375 13.6378 15.9375 13.6875C15.9375 13.7373 15.9177 13.7849 15.8826 13.8201C15.8474 13.8553 15.7997 13.875 15.75 13.875ZM15.75 12.75H14.625C14.5753 12.75 14.5276 12.7303 14.4924 12.6951C14.4573 12.6599 14.4375 12.6123 14.4375 12.5625C14.4375 12.5128 14.4573 12.4651 14.4924 12.4299C14.5276 12.3948 14.5753 12.375 14.625 12.375H15.75C15.7997 12.375 15.8474 12.3948 15.8826 12.4299C15.9177 12.4651 15.9375 12.5128 15.9375 12.5625C15.9375 12.6123 15.9177 12.6599 15.8826 12.6951C15.8474 12.7303 15.7997 12.75 15.75 12.75ZM15.75 11.625H14.625C14.5753 11.625 14.5276 11.6053 14.4924 11.5701C14.4573 11.5349 14.4375 11.4873 14.4375 11.4375C14.4375 11.3878 14.4573 11.3401 14.4924 11.3049C14.5276 11.2698 14.5753 11.25 14.625 11.25H15.75C15.7997 11.25 15.8474 11.2698 15.8826 11.3049C15.9177 11.3401 15.9375 11.3878 15.9375 11.4375C15.9375 11.4873 15.9177 11.5349 15.8826 11.5701C15.8474 11.6053 15.7997 11.625 15.75 11.625ZM15.75 10.5H14.625C14.5753 10.5 14.5276 10.4803 14.4924 10.4451C14.4573 10.4099 14.4375 10.3623 14.4375 10.3125C14.4375 10.2628 14.4573 10.2151 14.4924 10.1799C14.5276 10.1448 14.5753 10.125 14.625 10.125H15.75C15.7997 10.125 15.8474 10.1448 15.8826 10.1799C15.9177 10.2151 15.9375 10.2628 15.9375 10.3125C15.9375 10.3623 15.9177 10.4099 15.8826 10.4451C15.8474 10.4803 15.7997 10.5 15.75 10.5ZM15.75 9.37503H14.625C14.5753 9.37503 14.5276 9.35527 14.4924 9.32011C14.4573 9.28495 14.4375 9.23726 14.4375 9.18753C14.4375 9.1378 14.4573 9.09011 14.4924 9.05494C14.5276 9.01978 14.5753 9.00003 14.625 9.00003H15.75C15.7997 9.00003 15.8474 9.01978 15.8826 9.05494C15.9177 9.09011 15.9375 9.1378 15.9375 9.18753C15.9375 9.23726 15.9177 9.28495 15.8826 9.32011C15.8474 9.35527 15.7997 9.37503 15.75 9.37503ZM19.6875 19.3125C19.6875 20.0363 19.0988 20.625 18.375 20.625C17.6512 20.625 17.0625 20.0363 17.0625 19.3125V14.1402L17.625 13.5777L18.2423 14.1949C18.2596 14.2124 18.2803 14.2263 18.3031 14.2358C18.3258 14.2452 18.3503 14.2501 18.3749 14.2502C18.3996 14.2502 18.424 14.2454 18.4468 14.236C18.4696 14.2265 18.4903 14.2127 18.5077 14.1953L19.125 13.5777L19.6875 14.1402V19.3125Z" fill="black"/>
</svg>
